#!OML:ASF E:\emotionWalksFemale\Project 1\Capture day 1\Session 1\Female1.ASF
:FULLY-SPECIFIED
:DEGREES
2395
root -8.90217 15.1518 23.8849 -0.643691 -1.98477 355.175
lowerback 9.15347 2.82952 4.69214
upperback -2.63464 4.39879 0.558244
thorax -7.61985 1.94057 -2.71615
lowerneck -11.8292 0.610977 -2.41523
upperneck 18.5842 0.940771 2.01813
head 7.64993 0.477611 1.15963
rclavicle -2.37423e-014 1.07344e-014
rhumerus -29.5631 16.7421 -91.2405
rradius 40.5
rwrist 11.267
rhand -6.56623 -49.7314
rfingers 7.12502
rthumb 19.288 -438.795
lclavicle -2.37423e-014 1.07344e-014
lhumerus -53.6574 13.0202 65.6134
lradius 37.8533
lwrist -16.5723
lhand -9.2532 -29.2851
lfingers 7.12502
lthumb 16.7027 0.0162919
rfemur 24.1583 8.7908 37.1751
rtibia 6.99722e-014
rfoot -7.44959 -21.0681
rtoes -9.40803
lfemur -33.3493 -35.7562 -6.31604
ltibia 26.0527
lfoot -37.5792 33.2429
ltoes 17.4578
2396
root -8.89077 15.1498 24.0421 -0.700571 -2.27804 355.059
lowerback 9.18938 2.80111 4.76711
upperback -2.68284 4.38379 0.686699
thorax -7.69892 1.92957 -2.62451
lowerneck -11.7269 0.759775 -2.63036
upperneck 18.6065 1.14917 2.20443
head 7.63088 0.579233 1.27665
rclavicle -3.40481e-014 -1.19271e-014
rhumerus -29.715 17.1502 -91.5321
rradius 40.435
rwrist 11.2015
rhand -6.18059 -49.7823
rfingers 7.12502
rthumb 19.6587 -438.808
lclavicle -3.40481e-014 -1.19271e-014
lhumerus -53.649 13.6298 65.4304
lradius 37.4948
lwrist -17.1722
lhand -9.1998 -28.7153
lfingers 7.12502
lthumb 16.7541 0.581835
rfemur 24.8049 8.49935 37.1057
rtibia 9.22361e-014
rfoot -6.84051 -20.1473
rtoes -8.91468
lfemur -32.1797 -33.2763 -7.74594
ltibia 25.9066
lfoot -33.3328 33.1516
ltoes 8.38642
2397
root -8.8816 15.1437 24.2017 -0.82401 -2.55029 354.852
lowerback 9.23417 2.79992 4.93613
upperback -2.66281 4.41397 0.809881
thorax -7.69929 1.93951 -2.59513
lowerneck -11.7633 0.823207 -2.79058
upperneck 18.6881 1.22927 2.403
head 7.65923 0.624754 1.37768
rclavicle 4.01172e-014 1.8487e-014
rhumerus -29.7344 17.2677 -91.7631
rradius 40.217
rwrist 11.1206
rhand -6.30325 -49.6313
rfingers 7.12502
rthumb 19.5408 -438.669
lclavicle 4.01172e-014 1.8487e-014
lhumerus -53.6155 14.1938 65.2559
lradius 37.294
lwrist -17.7531
lhand -9.08618 -28.2593
lfingers 7.12502
lthumb 16.8635 1.02854
rfemur 25.5224 8.16752 37.1328
rtibia 9.54166e-015
rfoot -6.18373 -19.2164
rtoes -7.78903
lfemur -30.8939 -30.2482 -9.26071
ltibia 25.9206
lfoot -29.9571 31.4397
ltoes 3.10258
2398
root -8.8504 15.1378 24.3504 -0.5885 -2.51145 355.562
lowerback 9.11066 2.91156 4.6931
upperback -2.82201 4.50382 0.426147
thorax -7.77808 1.98047 -2.87521
lowerneck -11.5896 0.592306 -2.45621
upperneck 18.5633 0.894845 2.13127
head 7.60021 0.462781 1.19722
rclavicle 4.93731e-014 2.22639e-014
rhumerus -29.7911 16.4513 -91.9011
rradius 39.8545
rwrist 11.5618
rhand -6.53971 -49.359
rfingers 7.12502
rthumb 19.3135 -438.42
lclavicle 4.93731e-014 2.22639e-014
lhumerus -53.5589 13.6885 65.4406
lradius 37.4462
lwrist -17.8342
lhand -9.10207 -28.9439
lfingers 7.12502
lthumb 16.8482 0.345195
rfemur 25.826 7.72733 35.975
rtibia 9.54166e-015
rfoot -5.59972 -18.5301
rtoes -8.56691
lfemur -30.1925 -27.8348 -11.4576
ltibia 25.9941
lfoot -27.8767 29.472
ltoes 0.282806
2399
root -8.83986 15.1236 24.5217 -0.701031 -2.72452 355.068
lowerback 9.03091 3.00439 5.16023
upperback -2.84078 4.69046 0.557083
thorax -7.71438 2.05425 -3.01827
lowerneck -11.6923 0.592257 -2.13901
upperneck 18.8045 0.887862 1.85825
head 7.7016 0.455536 1.05695
rclavicle -6.76862e-014 -2.66371e-014
rhumerus -30.0219 16.0047 -92.0287
rradius 39.645
rwrist 12.0233
rhand -6.43143 -49.2693
rfingers 7.12502
rthumb 19.4176 -438.32
lclavicle -6.76862e-014 -2.66371e-014
lhumerus -53.5019 13.1727 65.7801
lradius 37.5509
lwrist -17.6874
lhand -9.18718 -29.5493
lfingers 7.12502
lthumb 16.7662 -0.253239
rfemur 26.5287 7.34648 36.2697
rtibia 3.18055e-015
rfoot -4.94096 -17.7954
rtoes -9.56539
lfemur -29.1067 -25.4819 -12.3026
ltibia 26.2275
lfoot -26.3461 27.2118
ltoes 1.67381
2400
root -8.8301 15.1146 24.6962 -0.748229 -2.92932 354.803
lowerback 8.78085 2.99989 5.2818
upperback -2.84722 4.6943 0.710401
thorax -7.58078 2.05944 -2.90779
lowerneck -11.6213 0.690071 -2.08758
upperneck 18.8346 1.01614 1.83264
head 7.69635 0.517611 1.05246
rclavicle 3.36195e-014 1.76918e-014
rhumerus -30.3334 16.2645 -92.2787
rradius 39.5967
rwrist 11.848
rhand -6.49093 -49.4708
rfingers 7.12502
rthumb 19.3604 -438.527
lclavicle 3.36195e-014 1.76918e-014
lhumerus -53.4538 13.1577 65.9913
lradius 37.601
lwrist -17.6404
lhand -9.12609 -29.2167
lfingers 7.12502
lthumb 16.8251 0.0743227
rfemur 27.2199 6.9884 36.3055
rtibia -6.36111e-014
rfoot -4.28538 -17.0684
rtoes -10.4262
lfemur -28.1516 -23.6639 -13.1223
ltibia 26.4944
lfoot -23.6227 26.5985
ltoes -6.08741
2401
root -8.81728 15.1099 24.8696 -0.934846 -3.11379 354.887
lowerback 8.71794 3.02575 5.2085
upperback -2.82771 4.71278 0.679184
thorax -7.52453 2.07364 -2.89742
lowerneck -11.584 0.733998 -2.09068
upperneck 18.8738 1.03787 2.02333
head 7.70059 0.54571 1.11796
rclavicle 5.24046e-014 6.16232e-015
rhumerus -30.659 16.2798 -92.6143
rradius 39.4952
rwrist 11.5233
rhand -6.64529 -49.6081
rfingers 7.12502
rthumb 19.2119 -438.679
lclavicle 5.24046e-014 6.16232e-015
lhumerus -53.406 12.8199 66.227
lradius 37.7897
lwrist -17.3847
lhand -9.1257 -28.9297
lfingers 7.12502
lthumb 16.8254 0.361354
rfemur 28.0193 6.60537 35.9406
rtibia -7.95139e-014
rfoot -3.33504 -16.3327
rtoes -10.5568
lfemur -27.2121 -22.6947 -14.057
ltibia 26.9352
lfoot -21.9973 25.8028
ltoes -10.2679
2402
root -8.80028 15.1118 25.0472 -1.17149 -3.29043 355.024
lowerback 8.78491 3.06803 5.16158
upperback -2.83383 4.76381 0.617615
thorax -7.56368 2.0976 -2.94803
lowerneck -11.6472 0.737034 -1.97346
upperneck 19.0128 1.02545 1.99213
head 7.75898 0.545011 1.08875
rclavicle -6.24184e-014 1.98785e-016
rhumerus -30.924 15.846 -92.79
rradius 39.2227
rwrist 11.7575
rhand -6.44446 -49.4256
rfingers 7.12502
rthumb 19.4051 -438.477
lclavicle -6.24184e-014 1.98785e-016
lhumerus -53.4624 12.3618 66.5019
lradius 38.0766
lwrist -17.0055
lhand -8.86195 -28.032
lfingers 7.12502
lthumb 17.0793 1.23722
rfemur 28.8192 6.22094 35.4885
rtibia 8.5875e-014
rfoot -2.05142 -15.5318
rtoes -12.2588
lfemur -26.3238 -22.8974 -14.6766
ltibia 27.194
lfoot -21.1686 25.281
ltoes -7.03411
2403
root -8.78643 15.1144 25.2337 -1.40889 -3.57683 355.098
lowerback 8.71398 3.12614 4.98203
upperback -2.80571 4.81922 0.681741
thorax -7.50713 2.13749 -2.78267
lowerneck -11.7754 0.769186 -1.98368
upperneck 19.1884 1.07406 1.98835
head 7.83903 0.566973 1.09675
rclavicle 4.34841e-015 -8.94531e-015
rhumerus -31.1577 15.6583 -92.8602
rradius 38.9128
rwrist 11.9613
rhand -6.26679 -49.1882
rfingers 7.12502
rthumb 19.5759 -438.223
lclavicle 4.34841e-015 -8.94531e-015
lhumerus -53.5076 12.4927 66.5722
lradius 38.1102
lwrist -17.0328
lhand -8.35363 -27.0192
lfingers 7.12502
lthumb 17.5686 2.20698
rfemur 29.625 5.94473 35.1065
rtibia -6.36111e-014
rfoot -0.72159 -14.713
rtoes -14.0363
lfemur -25.6246 -23.9911 -14.8576
ltibia 27.3133
lfoot -20.5298 25.9455
ltoes -3.05094
